<svg xmlns="http://www.w3.org/2000/svg" xmlns:xlink="http://www.w3.org/1999/xlink" fill="none" version="1.1" width="520" height="520" viewBox="0 0 520 520"><g><g><rect x="0" y="0" width="520" height="520" rx="0" fill="#020202" fill-opacity="1"/></g><g><path d="M413.984,286.72554755859375C413.984,279.47504755859376,415.081,273.06104755859377,417.273,267.4835475585937C419.557,261.90594755859377,422.617,257.25854755859376,426.454,253.54014755859376C430.382,249.72824755859375,434.949,246.84734755859375,440.156,244.89454755859376C445.454,242.94274755859374,451.164,241.96684755859374,457.284,241.96684755859374C463.404,241.96684755859374,469.068,242.94274755859374,474.275,244.89454755859376C479.573,246.84734755859375,484.186,249.72824755859375,488.114,253.54014755859376C492.042,257.25854755859376,495.103,261.90594755859377,497.295,267.4835475585937C499.579,273.06104755859377,500.721,279.47504755859376,500.721,286.72554755859375C500.721,293.97704755859377,499.624,300.4378475585937,497.432,306.10804755859374C495.24,311.6855475585937,492.179,316.38024755859374,488.251,320.19024755859374C484.415,323.90924755859373,479.847,326.74424755859377,474.549,328.69724755859374C469.251,330.64824755859377,463.496,331.62424755859377,457.284,331.62424755859377C451.072,331.62424755859377,445.317,330.64824755859377,440.019,328.69724755859374C434.721,326.65124755859375,430.153,323.72324755859376,426.317,319.9122475585938C422.48,316.10124755859374,419.465,311.40664755859376,417.273,305.8291475585937C415.081,300.25164755859373,413.984,293.88344755859373,413.984,286.72554755859375ZM438.649,286.72554755859375C438.649,295.18494755859376,440.339,301.50634755859375,443.719,305.68974755859375C447.099,309.8721475585937,451.62,311.9643475585938,457.284,311.9643475585938C463.039,311.9643475585938,467.606,309.8721475585937,470.986,305.68974755859375C474.366,301.50634755859375,476.056,295.18494755859376,476.056,286.72554755859375C476.056,278.35974755859377,474.366,272.08514755859375,470.986,267.90174755859374C467.698,263.71934755859377,463.176,261.6271475585937,457.421,261.6271475585937C451.757,261.6271475585937,447.19,263.71934755859377,443.719,267.90174755859374C440.339,271.99254755859374,438.649,278.26714755859376,438.649,286.72554755859375ZM360.586,297.7412475585937L360.586,328.55724755859376C359.581,328.83624755859375,357.982,329.11524755859375,355.79,329.39424755859375C353.598,329.67324755859374,351.451,329.81224755859375,349.35,329.81224755859375C347.249,329.81224755859375,345.376,329.6262475585937,343.732,329.25424755859376C342.179,328.97624755859374,340.854,328.41824755859375,339.758,327.5802475585938C338.662,326.74424755859377,337.84,325.58224755859374,337.292,324.09524755859377C336.744,322.60724755859377,336.47,320.65624755859375,336.47,318.2392475585938L336.47,244.61574755859374C337.474,244.43054755859376,339.073,244.19744755859375,341.265,243.91864755859376C343.458,243.54724755859374,345.559,243.36104755859375,347.569,243.36104755859375C349.67,243.36104755859375,351.497,243.54724755859374,353.049,243.91864755859376C354.694,244.19744755859375,356.064,244.75514755859376,357.16,245.59164755859376C358.256,246.42914755859374,359.079,247.59024755859375,359.627,249.07794755859373C360.175,250.56574755859376,360.449,252.51754755859375,360.449,254.93434755859374L360.449,277.10504755859375L388.95,243.77924755859374C395.162,243.77924755859374,399.592,244.98814755859374,402.241,247.40504755859376C404.982,249.72824755859375,406.352,252.51754755859375,406.352,255.77084755859374C406.352,258.18764755859377,405.758,260.46504755859377,404.57,262.60304755859374C403.383,264.7410475585938,401.465,267.1579475585937,398.815,269.85454755859377L381.687,287.28424755859373C383.971,289.88624755859377,386.346,292.58194755859375,388.813,295.3712475585937C391.371,298.06684755859374,393.837,300.7625475585937,396.212,303.45814755859374C398.678,306.0612475585938,401.008,308.57174755859376,403.2,310.9885475585937C405.484,313.40534755859375,407.448,315.54324755859375,409.092,317.4022475585938C409.092,319.44724755859374,408.727,321.26024755859373,407.996,322.8402475585938C407.265,324.42124755859373,406.26,325.76824755859377,404.982,326.8832475585938C403.794,328.00024755859374,402.424,328.83624755859375,400.871,329.39424755859375C399.318,329.95124755859376,397.674,330.23024755859376,395.938,330.23024755859376C392.193,330.23024755859376,389.132,329.30024755859375,386.757,327.4412475585938C384.382,325.4892475585938,382.099,323.21224755859373,379.906,320.6092475585938L360.586,297.7412475585937ZM318.696,326.1862475585938C317.417,327.48824755859374,315.545,328.46424755859374,313.078,329.11524755859375C310.703,329.8592475585938,307.826,330.23024755859376,304.446,330.23024755859376C301.066,330.23024755859376,297.868,329.71924755859374,294.854,328.69724755859374C291.839,327.6742475585937,289.373,325.2102475585938,287.455,321.3062475585938L273.889,293.14054755859377C272.519,290.25874755859377,271.286,287.5630475585938,270.19,285.0526475585938C269.09299999999996,282.44954755859374,267.906,279.47514755859373,266.627,276.12914755859373L265.805,276.26854755859375C266.16999999999996,281.28844755859376,266.353,286.40094755859377,266.353,291.60604755859373C266.44399999999996,296.8121475585938,266.49,301.92464755859373,266.49,306.94454755859374L266.49,328.55724755859376C265.485,328.83624755859375,263.932,329.11524755859375,261.831,329.39424755859375C259.822,329.67324755859374,257.812,329.81224755859375,255.802,329.81224755859375C253.792,329.81224755859375,252.011,329.67324755859374,250.458,329.39424755859375C248.905,329.11524755859375,247.626,328.55724755859376,246.622,327.72124755859375C245.617,326.8832475585938,244.84,325.76824755859377,244.292,324.37424755859377C243.744,322.88624755859377,243.47,320.98124755859374,243.47,318.6572475585938L243.47,248.93854755859374C244.749,247.07934755859375,246.713,245.68524755859374,249.362,244.75514755859376C252.011,243.82604755859376,254.843,243.36104755859375,257.858,243.36104755859375C261.23699999999997,243.36104755859375,264.435,243.91864755859376,267.449,245.03394755859375C270.555,246.05664755859374,273.02099999999996,248.47354755859374,274.848,252.28554755859375L288.551,280.4509475585937C289.921,283.33284755859376,291.154,286.07534755859376,292.251,288.67834755859377C293.347,291.18774755859374,294.534,294.11654755859377,295.813,297.46244755859374L296.498,297.32304755859377C296.133,292.30314755859376,295.904,287.28424755859373,295.813,282.2643475585937C295.722,277.2444475585937,295.676,272.22464755859374,295.676,267.20474755859374L295.676,244.61574755859374C296.681,244.33694755859375,298.188,244.05804755859376,300.198,243.77924755859374C302.299,243.50044755859375,304.354,243.36104755859375,306.364,243.36104755859375C310.383,243.36104755859375,313.444,244.10494755859375,315.545,245.59164755859376C317.646,246.98674755859375,318.696,249.96124755859375,318.696,254.51614755859376L318.696,326.1862475585938ZM225.7,328.55724755859376C224.695,328.83624755859375,223.096,329.11524755859375,220.904,329.39424755859375C218.803,329.67324755859374,216.702,329.81224755859375,214.601,329.81224755859375C212.5,329.81224755859375,210.627,329.6262475585937,208.983,329.25424755859376C207.43,328.97624755859374,206.105,328.41824755859375,205.009,327.5802475585938C203.913,326.74424755859377,203.091,325.58224755859374,202.543,324.09524755859377C201.995,322.60724755859377,201.721,320.65624755859375,201.721,318.2392475585938L201.721,244.61574755859374C202.725,244.43054755859376,204.324,244.19744755859375,206.516,243.91864755859376C208.709,243.54724755859374,210.81,243.36104755859375,212.819,243.36104755859375C214.921,243.36104755859375,216.748,243.54724755859374,218.3,243.91864755859376C219.945,244.19744755859375,221.315,244.75514755859376,222.411,245.59164755859376C223.507,246.42914755859374,224.329,247.59024755859375,224.878,249.07794755859373C225.426,250.56574755859376,225.7,252.51754755859375,225.7,254.93434755859374L225.7,328.55724755859376ZM20.278015,267.26474755859374C20.278015,238.21494755859374,43.302,214.71624755859375,71.64,214.71624755859375C77.275,214.71624755859375,82.69200000000001,215.64227855859374,87.758,217.35387755859375C73.786,229.30064755859374,64.893,247.22284755859374,64.893,267.26474755859374L64.893,272.72934755859376L64.894,272.72934755859376L64.894,308.7813475585938C64.894,321.39724755859373,54.844,331.62424755859377,42.447,331.62424755859377C30.05,331.62424755859377,20,321.39724755859373,20,308.7813475585938L20,272.72934755859376L20.278015,272.72934755859376L20.278015,267.26474755859374ZM77.836,267.26474755859374L77.836,272.72934755859376L77.832,272.72934755859376L77.832,308.7813475585938C77.832,321.39724755859373,87.881,331.62424755859377,100.279,331.62424755859377C112.676,331.62424755859377,122.726,321.39724755859373,122.726,308.7813475585938L122.726,267.26474755859374C122.726,247.53014755859374,138.446,231.53124755859375,157.838,231.53124755859375L157.976,231.53124755859375C161.505,231.53124755859375,164.911,232.06554755859375,168.121,233.05664755859374C158.65,221.82934755859375,144.602,214.71624755859375,128.922,214.71624755859375C121.12,214.71624755859375,113.735,216.47262755859376,107.115,219.61605755859375L103.532,221.73571755859376C88.167,230.82404755859375,77.836,247.80694755859375,77.836,267.26474755859374ZM135.394,267.26474755859374C135.394,254.49064755859376,145.494,244.18224755859376,157.906,244.14354755859375C170.423,244.18014755859375,180.559,254.51814755859374,180.559,267.26474755859374L180.559,308.4627475585937C180.559,321.26024755859373,170.42,331.58424755859374,157.976,331.58424755859374C145.53199999999998,331.58424755859374,135.394,321.26024755859373,135.394,308.4627475585937L135.394,267.26474755859374Z" fill="#FFFFFF" fill-opacity="1"/></g></g></svg>