<svg class="css-ze2te4 css-qd6ojx" viewBox="0 0 100.00000000000001 100.00000000000001"><g transform="translate(-14.102564102564104, -14.102564102564104) scale(1.2820512820512822)" class="css-1ux9you" fill="#002851"><title xmlns="http://www.w3.org/2000/svg">104all</title><path xmlns="http://www.w3.org/2000/svg" d="M36.61,26.77a7,7,0,1,0,2,4.92,6.91,6.91,0,0,0-2-4.92Z"></path><path xmlns="http://www.w3.org/2000/svg" d="M77.49,25.34a11,11,0,0,1-1.28,13.95h0a11,11,0,1,1-1.55-16.78L85,12.15A7.92,7.92,0,0,0,81,11H19a8,8,0,0,0-8,8V81A7.92,7.92,0,0,0,12.15,85L22.51,74.66a11,11,0,1,1,16.78,1.55h0a10.95,10.95,0,0,1-14,1.28L15,87.85A7.92,7.92,0,0,0,19,89H81a8,8,0,0,0,8-8V19A7.92,7.92,0,0,0,87.85,15ZM76.06,76.06A11,11,0,0,1,59.28,62.11L37.9,40.72a11,11,0,1,1,2.83-2.83L62.11,59.28a11,11,0,0,1,13.95,1.28h0A11,11,0,0,1,76.06,76.06Z"></path><path xmlns="http://www.w3.org/2000/svg" d="M68.31,61.35a7,7,0,1,0,4.92,2A6.94,6.94,0,0,0,68.31,61.35Z"></path><path xmlns="http://www.w3.org/2000/svg" d="M31.54,75.42a6.91,6.91,0,0,0,4.92-2h0a7,7,0,1,0-4.92,2Z"></path><path xmlns="http://www.w3.org/2000/svg" d="M68.46,24.58a7,7,0,1,0,4.92,2A6.94,6.94,0,0,0,68.46,24.58Z"></path></g></svg>
