<svg xmlns="http://www.w3.org/2000/svg" xmlns:xlink="http://www.w3.org/1999/xlink" fill="none" version="1.1" width="128" height="128" viewBox="0 0 300 300"><g><g><rect x="0" y="0" width="300" height="300" rx="0" fill="#020202" fill-opacity="1"/></g><g><g><ellipse cx="150.5" cy="150.5" rx="143.5" ry="143.5" fill="#FFFFFF" fill-opacity="1"/></g><g><ellipse cx="221" cy="143" rx="13" ry="13" fill="#FFFFFF" fill-opacity="1"/></g><g><ellipse cx="150" cy="190" rx="13" ry="13" fill="#FFFFFF" fill-opacity="1"/></g><g><ellipse cx="80" cy="190" rx="13" ry="13" fill="#FFFFFF" fill-opacity="1"/></g><g><path d="M116.17003417968749,81C81.87003417968751,81,54.0000001796875,108.94800000000001,54.0000001796875,143.5L54.0000001796875,150L53.6600341796875,150L53.6600341796875,192.87900000000002C53.6600341796875,207.88400000000001,65.8299341796875,220.048,80.8299341796875,220.048C95.8399341796875,220.048,108.0000341796875,207.88400000000001,108.0000341796875,192.87900000000002L108.0000341796875,150L108.0000341796875,143.5C108.0000341796875,119.663,118.7600341796875,98.34700000000001,135.68003417968748,84.13699C129.5400341796875,82.10199,122.9900341796875,81,116.17003417968749,81Z" fill="#020202" fill-opacity="1"/></g><g><path d="M123.6700439796875,150L123.6700439796875,143.5C123.6700439796875,120.358,136.1700341796875,100.15899999999999,154.7700341796875,89.349L159.1100341796875,86.828C167.1200341796875,83.08899,176.0600341796875,81,185.5000341796875,81C204.47993417968752,81,221.47993417968752,89.45999,232.95003417968752,102.814C229.0600341796875,101.634,224.9400341796875,101,220.6700341796875,101L220.57993417968748,101L220.5000341796875,101C197.0300341796875,101,178.0000341796875,120.02799999999999,178.0000341796875,143.5L178.0000341796875,192.87900000000002C178.0000341796875,207.88400000000001,165.8399341796875,220.048,150.82993417968748,220.048C135.8299341796875,220.048,123.6600341796875,207.88400000000001,123.6600341796875,192.87900000000002L123.6600341796875,150L123.6700439796875,150Z" fill="#020202" fill-opacity="1"/></g><g><path d="M220.5799560546875,116C205.5600560546875,116.04599,193.3299560546875,128.307,193.3299560546875,143.5L193.3299560546875,192.5C193.3299560546875,207.72199999999998,205.5999560546875,220,220.6700560546875,220C235.7299560546875,220,247.99995605468752,207.72199999999998,247.99995605468752,192.5L247.99995605468752,143.5C247.99995605468752,128.34,235.7299560546875,116.0450134,220.5799560546875,116Z" fill="#020202" fill-opacity="1"/></g></g></g></svg>
