<svg xmlns="http://www.w3.org/2000/svg" xmlns:xlink="http://www.w3.org/1999/xlink" fill="none" version="1.1" width="480.720947265625" height="116.90838623046875" viewBox="0 0 480.720947265625 116.90838623046875"><g><path d="M393.984,72.0093C393.984,64.7588,395.081,58.3448,397.273,52.7673C399.557,47.1897,402.617,42.5423,406.454,38.8239C410.382,35.012,414.949,32.1311,420.156,30.1783C425.454,28.2265,431.164,27.2506,437.284,27.2506C443.404,27.2506,449.068,28.2265,454.275,30.1783C459.573,32.1311,464.186,35.012,468.114,38.8239C472.042,42.5423,475.103,47.1897,477.295,52.7673C479.579,58.3448,480.721,64.7588,480.721,72.0093C480.721,79.2608,479.624,85.7216,477.432,91.3918C475.24,96.9693,472.179,101.664,468.251,105.474C464.415,109.193,459.847,112.028,454.549,113.981C449.251,115.932,443.496,116.908,437.284,116.908C431.072,116.908,425.317,115.932,420.019,113.981C414.721,111.935,410.153,109.007,406.317,105.196C402.48,101.385,399.465,96.6904,397.273,91.1129C395.081,85.5354,393.984,79.1672,393.984,72.0093ZM418.649,72.0093C418.649,80.4687,420.339,86.7901,423.719,90.9735C427.099,95.1559,431.62,97.2481,437.284,97.2481C443.039,97.2481,447.606,95.1559,450.986,90.9735C454.366,86.7901,456.056,80.4687,456.056,72.0093C456.056,63.6435,454.366,57.3689,450.986,53.1855C447.698,49.0031,443.176,46.9109,437.421,46.9109C431.757,46.9109,427.19,49.0031,423.719,53.1855C420.339,57.2763,418.649,63.5509,418.649,72.0093ZM340.586,83.025L340.586,113.841C339.581,114.12,337.982,114.399,335.79,114.678C333.598,114.957,331.451,115.096,329.35,115.096C327.249,115.096,325.376,114.91,323.732,114.538C322.179,114.26,320.854,113.702,319.758,112.864C318.662,112.028,317.84,110.866,317.292,109.379C316.744,107.891,316.47,105.94,316.47,103.523L316.47,29.8995C317.474,29.7143,319.073,29.4812,321.265,29.2024C323.458,28.831,325.559,28.6448,327.569,28.6448C329.67,28.6448,331.497,28.831,333.049,29.2024C334.694,29.4812,336.064,30.0389,337.16,30.8754C338.256,31.7129,339.079,32.874,339.627,34.3617C340.175,35.8495,340.449,37.8013,340.449,40.2181L340.449,62.3888L368.95,29.063C375.162,29.063,379.592,30.2719,382.241,32.6888C384.982,35.012,386.352,37.8013,386.352,41.0546C386.352,43.4714,385.758,45.7488,384.57,47.8868C383.383,50.0248,381.465,52.4417,378.815,55.1383L361.687,72.568C363.971,75.17,366.346,77.8657,368.813,80.655C371.371,83.3506,373.837,86.0463,376.212,88.7419C378.678,91.345,381.008,93.8555,383.2,96.2723C385.484,98.6891,387.448,100.827,389.092,102.686C389.092,104.731,388.727,106.544,387.996,108.124C387.265,109.705,386.26,111.052,384.982,112.167C383.794,113.284,382.424,114.12,380.871,114.678C379.318,115.235,377.674,115.514,375.938,115.514C372.193,115.514,369.132,114.584,366.757,112.725C364.382,110.773,362.099,108.496,359.906,105.893L340.586,83.025ZM298.696,111.47C297.417,112.772,295.545,113.748,293.078,114.399C290.703,115.143,287.826,115.514,284.446,115.514C281.066,115.514,277.868,115.003,274.854,113.981C271.839,112.958,269.373,110.494,267.455,106.59L253.889,78.4243C252.519,75.5425,251.286,72.8468,250.19,70.3364C249.093,67.7333,247.906,64.7589,246.627,61.4129L245.805,61.5523C246.17,66.5722,246.353,71.6847,246.353,76.8898C246.444,82.0959,246.49,87.2084,246.49,92.2283L246.49,113.841C245.485,114.12,243.932,114.399,241.831,114.678C239.822,114.957,237.812,115.096,235.802,115.096C233.792,115.096,232.011,114.957,230.458,114.678C228.905,114.399,227.626,113.841,226.622,113.005C225.617,112.167,224.84,111.052,224.292,109.658C223.744,108.17,223.47,106.265,223.47,103.941L223.47,34.2223C224.749,32.3631,226.713,30.969,229.362,30.0389C232.011,29.1098,234.843,28.6448,237.858,28.6448C241.237,28.6448,244.435,29.2024,247.449,30.3177C250.555,31.3404,253.021,33.7573,254.848,37.5693L268.551,65.7347C269.921,68.6166,271.154,71.3591,272.251,73.9621C273.347,76.4715,274.534,79.4003,275.813,82.7462L276.498,82.6068C276.133,77.5869,275.904,72.568,275.813,67.5481C275.722,62.5282,275.676,57.5084,275.676,52.4885L275.676,29.8995C276.681,29.6207,278.188,29.3418,280.198,29.063C282.299,28.7842,284.354,28.6448,286.364,28.6448C290.383,28.6448,293.444,29.3887,295.545,30.8754C297.646,32.2705,298.696,35.245,298.696,39.7999L298.696,111.47ZM205.7,113.841C204.695,114.12,203.096,114.399,200.904,114.678C198.803,114.957,196.702,115.096,194.601,115.096C192.5,115.096,190.627,114.91,188.983,114.538C187.43,114.26,186.105,113.702,185.009,112.864C183.913,112.028,183.091,110.866,182.543,109.379C181.995,107.891,181.721,105.94,181.721,103.523L181.721,29.8995C182.725,29.7143,184.324,29.4812,186.516,29.2024C188.709,28.831,190.81,28.6448,192.819,28.6448C194.921,28.6448,196.748,28.831,198.3,29.2024C199.945,29.4812,201.315,30.0389,202.411,30.8754C203.507,31.7129,204.329,32.874,204.878,34.3617C205.426,35.8495,205.7,37.8013,205.7,40.2181L205.7,113.841ZM0.278015,52.5485C0.278015,23.4987,23.302,0,51.64,0C57.275,0,62.692,0.926031,67.758,2.63763C53.786,14.5844,44.893,32.5066,44.893,52.5485L44.893,58.0131L44.894,58.0131L44.894,94.0651C44.894,106.681,34.844,116.908,22.447,116.908C10.05,116.908,0,106.681,0,94.0651L0,58.0131L0.278015,58.0131L0.278015,52.5485ZM57.836,52.5485L57.836,58.0131L57.832,58.0131L57.832,94.0651C57.832,106.681,67.881,116.908,80.279,116.908C92.676,116.908,102.726,106.681,102.726,94.0651L102.726,52.5485C102.726,32.8139,118.446,16.815,137.838,16.815L137.976,16.815C141.505,16.815,144.911,17.3493,148.121,18.3404C138.65,7.1131,124.602,0,108.922,0C101.12,0,93.735,1.75638,87.115,4.89981L83.532,7.01947C68.167,16.1078,57.836,33.0907,57.836,52.5485ZM115.394,52.5485C115.394,39.7744,125.494,29.466,137.906,29.4273C150.423,29.4639,160.559,39.8019,160.559,52.5485L160.559,93.7465C160.559,106.544,150.42,116.868,137.976,116.868C125.532,116.868,115.394,106.544,115.394,93.7465L115.394,52.5485Z" fill="#FFFFFF" fill-opacity="1"/></g></svg>