<svg xmlns="http://www.w3.org/2000/svg">
  <defs>
    <symbol id="email" viewBox="0 0 512 512">
      <path d="M64 112c-8.8 0-16 7.2-16 16v22.1L220.5 291.7c20.7 17 50.4 17 71.1 0L464 150.1V128c0-8.8-7.2-16-16-16H64zM48 212.2V384c0 8.8 7.2 16 16 16H448c8.8 0 16-7.2 16-16V212.2L322 328.8c-38.4 31.5-93.7 31.5-132 0L48 212.2zM0 128C0 92.7 28.7 64 64 64H448c35.3 0 64 28.7 64 64V384c0 35.3-28.7 64-64 64H64c-35.3 0-64-28.7-64-64V128z"/>
    </symbol>
    <symbol id="github" viewBox="0 0 496 512">
      <path d="M165.9 397.4c0 2-2.3 3.6-5.2 3.6-3.3 .3-5.6-1.3-5.6-3.6 0-2 2.3-3.6 5.2-3.6 3-.3 5.6 1.3 5.6 3.6zm-31.1-4.5c-.7 2 1.3 4.3 4.3 4.9 2.6 1 5.6 0 6.2-2s-1.3-4.3-4.3-5.2c-2.6-.7-5.5 .3-6.2 2.3zm44.2-1.7c-2.9 .7-4.9 2.6-4.6 4.9 .3 2 2.9 3.3 5.9 2.6 2.9-.7 4.9-2.6 4.6-4.6-.3-1.9-3-3.2-5.9-2.9zM244.8 8C106.1 8 0 113.3 0 252c0 110.9 69.8 205.8 169.5 239.2 12.8 2.3 17.3-5.6 17.3-12.1 0-6.2-.3-40.4-.3-61.4 0 0-70 15-84.7-29.8 0 0-11.4-29.1-27.8-36.6 0 0-22.9-15.7 1.6-15.4 0 0 24.9 2 38.6 25.8 21.9 38.6 58.6 27.5 72.9 20.9 2.3-16 8.8-27.1 16-33.7-55.9-6.2-112.3-14.3-112.3-110.5 0-27.5 7.6-41.3 23.6-58.9-2.6-6.5-11.1-33.3 2.6-67.9 20.9-6.5 69 27 69 27 20-5.6 41.5-8.5 62.8-8.5s42.8 2.9 62.8 8.5c0 0 48.1-33.6 69-27 13.7 34.7 5.2 61.4 2.6 67.9 16 17.7 25.8 31.5 25.8 58.9 0 96.5-58.9 104.2-114.8 110.5 9.2 7.9 17 22.9 17 46.4 0 33.7-.3 75.4-.3 83.6 0 6.5 4.6 14.4 17.3 12.1C428.2 457.8 496 362.9 496 252 496 113.3 383.5 8 244.8 8zM97.2 352.9c-1.3 1-1 3.3 .7 5.2 1.6 1.6 3.9 2.3 5.2 1 1.3-1 1-3.3-.7-5.2-1.6-1.6-3.9-2.3-5.2-1zm-10.8-8.1c-.7 1.3 .3 2.9 2.3 3.9 1.6 1 3.6 .7 4.3-.7 .7-1.3-.3-2.9-2.3-3.9-2-.6-3.6-.3-4.3 .7zm32.4 35.6c-1.6 1.3-1 4.3 1.3 6.2 2.3 2.3 5.2 2.6 6.5 1 1.3-1.3 .7-4.3-1.3-6.2-2.2-2.3-5.2-2.6-6.5-1zm-11.4-14.7c-1.6 1-1.6 3.6 0 5.9 1.6 2.3 4.3 3.3 5.6 2.3 1.6-1.3 1.6-3.9 0-6.2-1.4-2.3-4-3.3-5.6-2z"/>
    </symbol>
    <symbol id="linkedin" viewBox="0 0 448 512">
      <path d="M416 32H31.9C14.3 32 0 46.5 0 64.3v383.4C0 465.5 14.3 480 31.9 480H416c17.6 0 32-14.5 32-32.3V64.3c0-17.8-14.4-32.3-32-32.3zM135.4 416H69V202.2h66.5V416zm-33.2-243c-21.3 0-38.5-17.3-38.5-38.5S80.9 96 102.2 96c21.2 0 38.5 17.3 38.5 38.5 0 21.3-17.2 38.5-38.5 38.5zm282.1 243h-66.4V312c0-24.8-.5-56.7-34.5-56.7-34.6 0-39.9 27-39.9 54.9V416h-66.4V202.2h63.7v29.2h.9c8.9-16.8 30.6-34.5 62.9-34.5 67.2 0 79.7 44.3 79.7 101.9V416z"/>
    </symbol>
    <symbol id="twitter-x" viewBox="0 0 512 512">
      <path d="M389.2 48h70.6L305.6 224.2 487 464H345L233.7 318.6 106.5 464H35.8L200.7 275.5 26.8 48H172.4L272.9 180.9 389.2 48zM364.4 421.8h39.1L151.1 88h-42L364.4 421.8z"/>
    </symbol>

    <!-- 微信 -->
    <symbol id="wechat" viewBox="0 0 300 300">
      <path fill="#2DC100" d="M300 255c0 24.854-20.147 45-45 45H45c-24.854 0-45-20.146-45-45V45C0 20.147 20.147 0 45 0h210c24.853 0 45 20.147 45 45v210z"/>
      <g fill="#FFF">
      <path d="M200.803 111.88c-24.213 1.265-45.268 8.605-62.362 25.188-17.271 16.754-25.155 37.284-23 62.734-9.464-1.172-18.084-2.462-26.753-3.192-2.994-.252-6.547.106-9.083 1.537-8.418 4.75-16.488 10.113-26.053 16.092 1.755-7.938 2.891-14.889 4.902-21.575 1.479-4.914.794-7.649-3.733-10.849-29.066-20.521-41.318-51.232-32.149-82.85 8.483-29.25 29.315-46.989 57.621-56.236 38.635-12.62 82.054.253 105.547 30.927 8.485 11.08 13.688 23.516 15.063 38.224zm-111.437-9.852c.223-5.783-4.788-10.993-10.74-11.167-6.094-.179-11.106 4.478-11.284 10.483-.18 6.086 4.475 10.963 10.613 11.119 6.085.154 11.186-4.509 11.411-10.435zm58.141-11.171c-5.974.11-11.022 5.198-10.916 11.004.109 6.018 5.061 10.726 11.204 10.652 6.159-.074 10.83-4.832 10.772-10.977-.051-6.032-4.981-10.79-11.06-10.679z"/>
      <path d="M255.201 262.83c-7.667-3.414-14.7-8.536-22.188-9.318-7.459-.779-15.3 3.524-23.104 4.322-23.771 2.432-45.067-4.193-62.627-20.432-33.397-30.89-28.625-78.254 10.014-103.568 34.341-22.498 84.704-14.998 108.916 16.219 21.129 27.24 18.646 63.4-7.148 86.284-7.464 6.623-10.15 12.073-5.361 20.804.884 1.612.985 3.653 1.498 5.689zm-87.274-84.499c4.881.005 8.9-3.815 9.085-8.636.195-5.104-3.91-9.385-9.021-9.406-5.06-.023-9.299 4.318-9.123 9.346.166 4.804 4.213 8.69 9.059 8.696zm56.261-18.022c-4.736-.033-8.76 3.844-8.953 8.629-.205 5.117 3.772 9.319 8.836 9.332 4.898.016 8.768-3.688 8.946-8.562.19-5.129-3.789-9.364-8.829-9.399z"/>
      </g>
    </symbol>
</defs>
</svg>
